<svg width="28" height="22" viewBox="0 0 28 22" fill="none" xmlns="http://www.w3.org/2000/svg">
<path d="M12.0008 1V21C12.0008 21.2652 11.8954 21.5196 11.7079 21.7071C11.5204 21.8946 11.266 22 11.0008 22C10.7356 22 10.4812 21.8946 10.2937 21.7071C10.1061 21.5196 10.0008 21.2652 10.0008 21V12H3.41454L5.70829 14.2925C5.89593 14.4801 6.00134 14.7346 6.00134 15C6.00134 15.2654 5.89593 15.5199 5.70829 15.7075C5.52065 15.8951 5.26615 16.0006 5.00079 16.0006C4.73542 16.0006 4.48093 15.8951 4.29329 15.7075L0.293287 11.7075C0.20031 11.6146 0.126551 11.5043 0.0762268 11.3829C0.0259025 11.2615 0 11.1314 0 11C0 10.8686 0.0259025 10.7385 0.0762268 10.6171C0.126551 10.4957 0.20031 10.3854 0.293287 10.2925L4.29329 6.2925C4.48093 6.10486 4.73542 5.99944 5.00079 5.99944C5.26615 5.99944 5.52065 6.10486 5.70829 6.2925C5.89593 6.48014 6.00134 6.73464 6.00134 7C6.00134 7.26536 5.89593 7.51986 5.70829 7.7075L3.41454 10H10.0008V1C10.0008 0.734784 10.1061 0.48043 10.2937 0.292893C10.4812 0.105357 10.7356 0 11.0008 0C11.266 0 11.5204 0.105357 11.7079 0.292893C11.8954 0.48043 12.0008 0.734784 12.0008 1ZM27.7083 10.2925L23.7083 6.2925C23.5206 6.10486 23.2661 5.99944 23.0008 5.99944C22.7354 5.99944 22.4809 6.10486 22.2933 6.2925C22.1056 6.48014 22.0002 6.73464 22.0002 7C22.0002 7.26536 22.1056 7.51986 22.2933 7.7075L24.587 10H18.0008V1C18.0008 0.734784 17.8954 0.48043 17.7079 0.292893C17.5204 0.105357 17.266 0 17.0008 0C16.7356 0 16.4812 0.105357 16.2937 0.292893C16.1061 0.48043 16.0008 0.734784 16.0008 1V21C16.0008 21.2652 16.1061 21.5196 16.2937 21.7071C16.4812 21.8946 16.7356 22 17.0008 22C17.266 22 17.5204 21.8946 17.7079 21.7071C17.8954 21.5196 18.0008 21.2652 18.0008 21V12H24.587L22.2933 14.2925C22.1056 14.4801 22.0002 14.7346 22.0002 15C22.0002 15.2654 22.1056 15.5199 22.2933 15.7075C22.4809 15.8951 22.7354 16.0006 23.0008 16.0006C23.2661 16.0006 23.5206 15.8951 23.7083 15.7075L27.7083 11.7075C27.8013 11.6146 27.875 11.5043 27.9253 11.3829C27.9757 11.2615 28.0016 11.1314 28.0016 11C28.0016 10.8686 27.9757 10.7385 27.9253 10.6171C27.875 10.4957 27.8013 10.3854 27.7083 10.2925Z" fill="#343330"/>
</svg>
