<svg width="28" height="28" viewBox="0 0 28 28" fill="none" xmlns="http://www.w3.org/2000/svg">
<path d="M27.4159 7.17095L20.8297 0.585948C20.644 0.400182 20.4235 0.252823 20.1808 0.152285C19.9381 0.0517467 19.678 0 19.4153 0C19.1526 0 18.8925 0.0517467 18.6499 0.152285C18.4072 0.252823 18.1867 0.400182 18.0009 0.585948L0.585948 17.9997C0.400182 18.1854 0.252823 18.4059 0.152285 18.6486C0.0517467 18.8913 0 19.1514 0 19.4141C0 19.6768 0.0517467 19.9369 0.152285 20.1795C0.252823 20.4222 0.400182 20.6427 0.585948 20.8284L7.1722 27.4134C7.35792 27.5992 7.57842 27.7466 7.8211 27.8471C8.06378 27.9477 8.32389 27.9994 8.58657 27.9994C8.84925 27.9994 9.10936 27.9477 9.35205 27.8471C9.59473 27.7466 9.81522 27.5992 10.0009 27.4134L27.4159 9.9997C27.6017 9.81397 27.7491 9.59348 27.8496 9.35079C27.9501 9.10811 28.0019 8.848 28.0019 8.58532C28.0019 8.32264 27.9501 8.06253 27.8496 7.81985C27.7491 7.57717 27.6017 7.35667 27.4159 7.17095ZM8.58595 25.9997L2.00095 19.4134L6.00095 15.4134L9.29345 18.7072C9.38636 18.8001 9.49666 18.8738 9.61805 18.9241C9.73944 18.9744 9.86955 19.0003 10.0009 19.0003C10.1323 19.0003 10.2625 18.9744 10.3838 18.9241C10.5052 18.8738 10.6155 18.8001 10.7084 18.7072C10.8014 18.6143 10.8751 18.504 10.9253 18.3826C10.9756 18.2612 11.0015 18.1311 11.0015 17.9997C11.0015 17.8683 10.9756 17.7382 10.9253 17.6168C10.8751 17.4954 10.8014 17.3851 10.7084 17.2922L7.4147 13.9997L10.0009 11.4134L13.2934 14.7072C13.4811 14.8948 13.7356 15.0003 14.0009 15.0003C14.2663 15.0003 14.5208 14.8948 14.7084 14.7072C14.8961 14.5196 15.0015 14.2651 15.0015 13.9997C15.0015 13.7343 14.8961 13.4798 14.7084 13.2922L11.4147 9.9997L14.0009 7.41345L17.2934 10.7072C17.3864 10.8001 17.4967 10.8738 17.6181 10.9241C17.7394 10.9744 17.8696 11.0003 18.0009 11.0003C18.1323 11.0003 18.2625 10.9744 18.3838 10.9241C18.5052 10.8738 18.6155 10.8001 18.7084 10.7072C18.8014 10.6143 18.8751 10.504 18.9253 10.3826C18.9756 10.2612 19.0015 10.1311 19.0015 9.9997C19.0015 9.8683 18.9756 9.73819 18.9253 9.6168C18.8751 9.49541 18.8014 9.38511 18.7084 9.2922L15.4147 5.9997L19.4147 1.9997L26.0009 8.58595L8.58595 25.9997Z" fill="#8CB024"/>
</svg>
