<svg width="16" height="30" viewBox="0 0 16 30" fill="none" xmlns="http://www.w3.org/2000/svg">
<path d="M9 18.125V10C9 9.73478 8.89464 9.48043 8.70711 9.29289C8.51957 9.10536 8.26522 9 8 9C7.73478 9 7.48043 9.10536 7.29289 9.29289C7.10536 9.48043 7 9.73478 7 10V18.125C6.05734 18.3684 5.23581 18.9472 4.6894 19.753C4.14299 20.5588 3.90921 21.5362 4.03188 22.502C4.15456 23.4678 4.62526 24.3557 5.35577 24.9993C6.08627 25.6429 7.02643 25.998 8 25.998C8.97357 25.998 9.91373 25.6429 10.6442 24.9993C11.3747 24.3557 11.8454 23.4678 11.9681 22.502C12.0908 21.5362 11.857 20.5588 11.3106 19.753C10.7642 18.9472 9.94266 18.3684 9 18.125ZM8 24C7.60444 24 7.21776 23.8827 6.88886 23.6629C6.55996 23.4432 6.30362 23.1308 6.15224 22.7654C6.00087 22.3999 5.96126 21.9978 6.03843 21.6098C6.1156 21.2219 6.30608 20.8655 6.58579 20.5858C6.86549 20.3061 7.22186 20.1156 7.60982 20.0384C7.99778 19.9613 8.39992 20.0009 8.76537 20.1522C9.13082 20.3036 9.44318 20.56 9.66294 20.8889C9.8827 21.2178 10 21.6044 10 22C10 22.5304 9.78929 23.0391 9.41421 23.4142C9.03914 23.7893 8.53043 24 8 24ZM13 15.75V5C13 3.67392 12.4732 2.40215 11.5355 1.46447C10.5979 0.526784 9.32608 0 8 0C6.67392 0 5.40215 0.526784 4.46447 1.46447C3.52678 2.40215 3 3.67392 3 5V15.75C1.70615 16.7859 0.765993 18.1981 0.309459 19.7915C-0.147074 21.3848 -0.0974444 23.0806 0.451491 24.6445C1.00043 26.2084 2.02156 27.5633 3.37378 28.5217C4.726 29.4802 6.34254 29.995 8 29.995C9.65746 29.995 11.274 29.4802 12.6262 28.5217C13.9784 27.5633 14.9996 26.2084 15.5485 24.6445C16.0974 23.0806 16.1471 21.3848 15.6905 19.7915C15.234 18.1981 14.2939 16.7859 13 15.75ZM8 28C6.72243 28.0001 5.47818 27.5924 4.4484 26.8363C3.41861 26.0801 2.65707 25.0151 2.27464 23.7961C1.8922 22.5771 1.90885 21.2678 2.32215 20.059C2.73545 18.8501 3.52383 17.8047 4.5725 17.075C4.7052 16.9823 4.81343 16.8589 4.88789 16.7152C4.96235 16.5715 5.00082 16.4118 5 16.25V5C5 4.20435 5.31607 3.44129 5.87868 2.87868C6.44129 2.31607 7.20435 2 8 2C8.79565 2 9.55871 2.31607 10.1213 2.87868C10.6839 3.44129 11 4.20435 11 5V16.25C11 16.411 11.0388 16.5696 11.1133 16.7124C11.1877 16.8551 11.2955 16.9778 11.4275 17.07C12.4784 17.799 13.2688 18.8446 13.6835 20.0545C14.0982 21.2643 14.1155 22.575 13.7328 23.7953C13.3501 25.0157 12.5875 26.0818 11.5562 26.8382C10.5249 27.5946 9.27894 28.0016 8 28Z" fill="#8CB024"/>
</svg>
