<svg width="29" height="27" viewBox="0 0 29 27" fill="none" xmlns="http://www.w3.org/2000/svg">
<g clip-path="url(#clip0_5_813)">
<path d="M14.5 27C22.5081 27 29 20.9558 29 13.5C29 6.04416 22.5081 0 14.5 0C6.49187 0 0 6.04416 0 13.5C0 20.9558 6.49187 27 14.5 27Z" fill="#F0F0F0"/>
<path d="M13.8696 13.5H29C29 12.2815 28.8256 11.1011 28.5005 9.97824H13.8696V13.5Z" fill="#D80027"/>
<path d="M13.8696 6.45653H26.8718C25.9842 5.10801 24.8493 3.91605 23.5261 2.93477H13.8696V6.45653Z" fill="#D80027"/>
<path d="M14.5001 27C17.9127 27 21.0493 25.9019 23.5262 24.0652H5.47412C7.95102 25.9019 11.0876 27 14.5001 27Z" fill="#D80027"/>
<path d="M2.12821 20.5435H26.8718C27.5844 19.4609 28.137 18.2775 28.5005 17.0217H0.499512C0.862975 18.2775 1.41562 19.4609 2.12821 20.5435V20.5435Z" fill="#D80027"/>
<path d="M6.71667 2.10821H8.03804L6.80894 2.93957L7.27843 4.28477L6.04939 3.45342L4.82034 4.28477L5.22589 3.12267C4.14371 3.96193 3.19521 4.94522 2.41357 6.04083H2.83696L2.05458 6.57002C1.93269 6.75933 1.81579 6.95166 1.70375 7.14683L2.07735 8.21739L1.38033 7.74589C1.20707 8.08766 1.04859 8.43713 0.906137 8.79388L1.31774 9.97344H2.83696L1.60786 10.8048L2.07735 12.15L0.848307 11.3186L0.112092 11.8167C0.0384023 12.3682 0 12.9299 0 13.5H14.5C14.5 6.0442 14.5 5.16523 14.5 0C11.6356 0 8.96536 0.773613 6.71667 2.10821V2.10821ZM7.27843 12.15L6.04939 11.3186L4.82034 12.15L5.28984 10.8048L4.06074 9.97344H5.57995L6.04939 8.62824L6.51883 9.97344H8.03804L6.80894 10.8048L7.27843 12.15ZM6.80894 6.87219L7.27843 8.21739L6.04939 7.38603L4.82034 8.21739L5.28984 6.87219L4.06074 6.04083H5.57995L6.04939 4.69563L6.51883 6.04083H8.03804L6.80894 6.87219ZM12.4795 12.15L11.2505 11.3186L10.0214 12.15L10.4909 10.8048L9.26182 9.97344H10.781L11.2505 8.62824L11.7199 9.97344H13.2391L12.01 10.8048L12.4795 12.15ZM12.01 6.87219L12.4795 8.21739L11.2505 7.38603L10.0214 8.21739L10.4909 6.87219L9.26182 6.04083H10.781L11.2505 4.69563L11.7199 6.04083H13.2391L12.01 6.87219ZM12.01 2.93957L12.4795 4.28477L11.2505 3.45342L10.0214 4.28477L10.4909 2.93957L9.26182 2.10821H10.781L11.2505 0.763014L11.7199 2.10821H13.2391L12.01 2.93957Z" fill="#0052B4"/>
</g>
<defs>
<clipPath id="clip0_5_813">
<rect width="29" height="27" fill="white"/>
</clipPath>
</defs>
</svg>
